# AST/ASF file generated using VICON BodyLanguage
# -----------------------------------------------
:version 1.10
:name VICON
:units
  mass 1.0
  length 0.45
  angle deg
:documentation
   .ast/.asf automatically generated from VICON data using
   VICON BodyBuilder and BodyLanguage model FoxedUp or BRILLIANT.MOD
:root
   order TX TY TZ RX RY RZ
   axis XYZ
   position 0 0 0  
   orientation 0 0 0 
:bonedata
  begin
     id 1 
     name lhipjoint
     direction 0.710188 -0.616876 0.339259 
     length 2.5669 
     axis 0 0 0  XYZ
  end
  begin
     id 2 
     name lfemur
     direction 0.34202 -0.939693 0  
     length 7.12796  
     axis 0 0 20  XYZ
    dof rx ry rz
    limits (-160.0 20.0)
           (-70.0 70.0)
           (-60.0 70.0)
  end
  begin
     id 3 
     name ltibia
     direction 0.34202 -0.939693 0   
     length 7.58108   
     axis 0 0 20   XYZ
    dof rx
    limits (-10.0 170.0)
  end
  begin
     id 4 
     name lfoot
     direction 0.0669471 -0.183936 0.980656   
     length 2.17365   
     axis -90 7.62852e-016 20   XYZ
    dof rx rz
    limits (-45.0 90.0)
           (-70.0 20.0)
  end
  begin
     id 5 
     name ltoes
     direction 1.53508e-011 -4.21705e-011 1   
     length 1.09427   
     axis -90 7.62852e-016 20   XYZ
    dof rx
    limits (-90.0 20.0)
  end
  begin
     id 6 
     name rhipjoint
     direction -0.700191 -0.625589 0.34405   
     length 2.53115  
     axis 0 0 0  XYZ 
  end
  begin
     id 7 
     name rfemur
     direction -0.34202 -0.939693 0   
     length 7.33006   
     axis 0 0 -20   XYZ
    dof rx ry rz
    limits (-160.0 20.0)
           (-70.0 70.0)
           (-70.0 60.0)
  end
  begin
     id 8 
     name rtibia
     direction -0.34202 -0.939693 0   
     length 7.64926   
     axis 0 0 -20   XYZ
    dof rx
    limits (-10.0 170.0)
 end
 begin
     id 9 
     name rfoot
     direction -0.0688927 -0.189281 0.979503   
     length 2.20493  
     axis -90 -7.62852e-016 -20   XYZ
    dof rx rz
    limits (-45.0 90.0)
           (-20.0 70.0)
  end
  begin
     id 10 
     name rtoes
     direction -1.53567e-011 -4.21933e-011 1   
     length 1.10919   
     axis -90 -7.62852e-016 -20   XYZ
    dof rx
    limits (-90.0 20.0)
  end
  begin
     id 11 
     name lowerback
     direction -0.0167868 0.989873 -0.140959   
     length 2.14596   
     axis 0 0 0   XYZ
    dof rx ry rz
    limits (-20.0 45.0)
           (-30.0 30.0)
           (-30.0 30.0)
  end
  begin
     id 12 
     name upperback
     direction 0.0129109 0.998033 0.0613525   
     length 2.10457   
     axis 0 0 0   XYZ
    dof rx ry rz
    limits (-20.0 45.0)
           (-30.0 30.0)
           (-30.0 30.0)
  end
  begin
     id 13 
     name thorax
     direction 0.0177047 0.991119 0.131797   
     length 2.17652   
     axis 0 0 0   XYZ
    dof rx ry rz
    limits (-20.0 45.0)
           (-30.0 30.0)
           (-30.0 30.0)
  end
  begin
     id 14 
     name lowerneck
     direction -0.0336893 0.997548 0.0613464   
     length 1.8912   
     axis 0 0 0   XYZ
    dof rx ry rz
    limits (-20.0 45.0)
           (-30.0 30.0)
           (-30.0 30.0)
  end
  begin
     id 15 
     name upperneck
     direction 0.0435909 0.997179 -0.0611028   
     length 1.8829   
     axis 0 0 0   XYZ
    dof rx ry rz
    limits (-20.0 45.0)
           (-30.0 30.0)
           (-30.0 30.0)
  end
  begin
     id 16
     name head
     direction 0.0175076 0.999444 -0.0283782  
     length 1.93197  
     axis 0 0 0   XYZ
    dof rx ry rz
    limits (-20.0 45.0)
           (-30.0 30.0)
           (-30.0 30.0)
  end
  begin
     id 17 
     name lclavicle
     direction 0.919164 0.389875 0.0559876  
     length 3.60004  
     axis 0 0 0   XYZ
    dof ry rz
    limits (-20.0 10.0)
           (0.0 20.0)
  end
  begin
     id 18 
     name lhumerus
     direction 1 -4.48958e-011 6.89191e-027   
     length 5.43301   
     axis 180 -30 -90   XYZ
    dof rx ry rz
    limits (-60.0 90.0)
           (-90.0 90.0)
           (-90.0 90.0)
  end
  begin
     id 19
     name lradius
     direction 1 -4.4897e-011 3.24727e-027   
     length 3.15936   
     axis 180 -30 -90   XYZ
    dof rx
    limits (-10.0 170.0)
  end
  begin
     id 20
     name lwrist
     direction 1 -4.4897e-011 9.00228e-027   
     length 1.57968   
     axis -6.29373e-015 90 90   XYZ
    dof ry
    limits (-180.0 0.0)
 end
  begin
     id 21 
     name lhand
     direction 1 -4.48968e-011 1.80042e-026   
     length 0.712827   
     axis -1.14882e-014 90 90   XYZ
    dof rx rz
    limits (-90.0 90.0)
           (-45.0 45.0)
  end
  begin
     id 22 
     name lfingers
     direction 1 -4.49019e-011 3.60267e-026   
     length 0.574699   
     axis -2.29769e-014 90 90   XYZ
    dof rx
    limits (0.0 90.0)
  end
  begin
     id 23
     name lthumb
     direction 0.707107 -6.3498e-011 0.707107   
     length 0.825157   
     axis -90 45 5.37419e-014   XYZ
    dof rx rz
    limits (-45.0 45.0)
           (-45.0 45.0)
  end
  begin
     id 24 
     name rclavicle
     direction -0.890334 0.455305 -0.00132111   
     length 3.51494  
     axis 0 0 0   XYZ 
    dof ry rz
    limits (-10.0 20.0)
           (-20.0 0.0)
  end
  begin
     id 25 
     name rhumerus
     direction -1 -4.48967e-011 5.07175e-028  
     length 5.34194   
     axis 180 30 90   XYZ
    dof rx ry rz
    limits (-90.0 60.0)
           (-90.0 90.0)
           (-90.0 90.0)
  end
  begin
     id 26 
     name rradius
     direction -1 -4.48955e-011 3.30467e-027   
     length 3.19351   
     axis 180 30 90   XYZ
    dof rx
    limits (-10.0 170.0)
  end
  begin
     id 27 
     name rwrist
     direction -1 -4.48968e-011 9.00208e-027   
     length 1.59676   
     axis -6.29373e-015 -90 -90   XYZ
    dof ry
    limits (-180.0 0.0)
  end
  begin
     id 28
     name rhand
     direction -1 -4.49e-011 1.80099e-026   
     length 0.743862   
     axis -1.14882e-014 -90 -90   XYZ
    dof rx rz
    limits (-90.0 90.0)
           (-45.0 45.0)
  end
  begin
     id 29
     name rfingers
     direction -1 -4.49009e-011 3.6023e-026   
     length 0.599721   
     axis -2.29769e-014 -90 -90   XYZ
    dof rx
    limits (0.0 90.0)
  end
  begin
     id 30
     name rthumb
     direction -0.707107 -6.35025e-011 0.707107   
     length 0.861083   
     axis -90 -45 -5.37419e-014   XYZ
    dof rx rz
    limits (-45.0 45.0)
           (-45.0 45.0)
  end
:hierarchy
  begin
    root lhipjoint rhipjoint lowerback
    lhipjoint lfemur
    lfemur ltibia
    ltibia lfoot
    lfoot ltoes
    rhipjoint rfemur
    rfemur rtibia
    rtibia rfoot
    rfoot rtoes
    lowerback upperback
    upperback thorax
    thorax lowerneck lclavicle rclavicle
    lowerneck upperneck
    upperneck head
    lclavicle lhumerus
    lhumerus lradius
    lradius lwrist
    lwrist lhand lthumb
    lhand lfingers
    rclavicle rhumerus
    rhumerus rradius
    rradius rwrist
    rwrist rhand rthumb
    rhand rfingers
  end

#!OML:ASF H:\Martial Arts Walks\Project 1\Capture day 1\Session 1\male.ASF
:FULLY-SPECIFIED
:DEGREES
774
root -3.58591 13.8404 11.1218 3.50678 22.0559 9.24139
lowerback 16.4198 -0.12331 -12.9609
upperback -0.861077 -2.80139 -1.02585
thorax -9.68709 -0.690223 6.88531
lowerneck -0.512155 -8.65653 -9.67797
upperneck 4.00376 -11.7866 9.00615
head 2.38023 -5.86591 3.8823
rclavicle -4.32046e-015 2.43014e-014
rhumerus -31.2133 14.9781 -74.6497
rradius 43.0462
rwrist 12.092
rhand -4.60626 -44.0967
rfingers 7.12502
rthumb 21.1717 -72.9606
lclavicle -4.32046e-015 2.43014e-014
lhumerus -23.6205 -16.2255 88.8597
lradius 33.9447
lwrist -7.03193
lhand -20.4426 24.6602
lfingers 7.12502
lthumb 5.9125 54.5577
rfemur -61.0127 -27.9673 9.00305
rtibia 74.8279
rfoot -10.6407 14.9952
rtoes 12.0338
lfemur 16.9435 7.15296 -8.53237
ltibia 33.4927
lfoot -27.0283 29.6628
ltoes -23.5078
775
root -3.58718 13.8367 11.1231 3.47503 22.028 9.24493
lowerback 16.4962 -0.0988978 -12.9795
upperback -0.858973 -2.78547 -1.03535
thorax -9.73174 -0.678644 6.88482
lowerneck -0.503715 -8.6638 -9.68466
upperneck 4.03591 -11.8004 9.03627
head 2.39193 -5.87242 3.89116
rclavicle -6.62823e-015 -2.37548e-014
rhumerus -31.1996 15.0273 -74.7258
rradius 42.9965
rwrist 12.1087
rhand -4.69595 -44.0168
rfingers 7.12502
rthumb 21.0855 -72.8903
lclavicle -6.62823e-015 -2.37548e-014
lhumerus -23.6073 -16.304 88.8797
lradius 33.9174
lwrist -7.00857
lhand -20.8356 24.6683
lfingers 7.12502
lthumb 5.53304 54.576
rfemur -61.0259 -27.9904 9.02549
rtibia 74.8697
rfoot -10.6462 15.0179
rtoes 11.9576
lfemur 16.9569 7.20638 -8.50808
ltibia 33.5565
lfoot -27.0311 29.659
ltoes -23.5095
776
root -3.58713 13.8338 11.1252 3.40729 22.0326 9.2717
lowerback 16.6238 -0.0828816 -13.005
upperback -0.854207 -2.79078 -1.05432
thorax -9.79846 -0.675444 6.88462
lowerneck -0.507928 -8.66523 -9.66147
upperneck 4.09504 -11.8051 9.02319
head 2.40848 -5.8743 3.88203
rclavicle 3.24702e-014 2.98177e-015
rhumerus -31.2105 15.061 -74.8038
rradius 42.9801
rwrist 12.2001
rhand -4.06496 -44.3114
rfingers 7.12502
rthumb 21.6916 -73.1161
lclavicle 3.24702e-014 2.98177e-015
lhumerus -23.6567 -16.3642 88.9022
lradius 33.9606
lwrist -7.00274
lhand -20.8946 24.6176
lfingers 7.12502
lthumb 5.47615 54.5268
rfemur -60.9738 -28.0565 8.98826
rtibia 74.9127
rfoot -10.6605 15.0614
rtoes 12.1804
lfemur 17.0238 7.22961 -8.49737
ltibia 33.6087
lfoot -27.0644 29.6349
ltoes -23.511
777
root -3.58767 13.833 11.1258 3.36018 22.0238 9.25566
lowerback 16.7129 -0.0757364 -13.0135
upperback -0.855498 -2.7966 -1.04776
thorax -9.84908 -0.673653 6.90198
lowerneck -0.455106 -8.6544 -9.67359
upperneck 4.08082 -11.7955 9.05361
head 2.3973 -5.87053 3.89628
rclavicle 3.57688e-014 -3.47873e-016
rhumerus -31.2099 15.1262 -74.8887
rradius 42.9615
rwrist 12.2197
rhand -4.1648 -44.2687
rfingers 7.12502
rthumb 21.5957 -73.0845
lclavicle 3.57688e-014 -3.47873e-016
lhumerus -23.6843 -16.3538 88.9226
lradius 33.9795
lwrist -7.03402
lhand -20.758 24.8261
lfingers 7.12502
lthumb 5.60801 54.7319
rfemur -60.9488 -28.0874 9.01525
rtibia 74.9317
rfoot -10.6549 15.0875
rtoes 12.1889
lfemur 17.0376 7.25939 -8.46013
ltibia 33.6658
lfoot -27.0357 29.6442
ltoes -23.6226
778
root -3.58861 13.8313 11.1265 3.29287 22.0057 9.20191
lowerback 16.7949 -0.0585632 -12.9944
upperback -0.845942 -2.7803 -1.02884
thorax -9.88836 -0.663774 6.91206
lowerneck -0.468422 -8.66899 -9.63586
upperneck 4.12247 -11.8141 9.00129
head 2.40822 -5.87967 3.87246
rclavicle 1.60239e-014 -2.14687e-014
rhumerus -31.1717 15.1565 -74.9469
rradius 42.9007
rwrist 12.192
rhand -4.65765 -44.0895
rfingers 7.12502
rthumb 21.1223 -72.9589
lclavicle 1.60239e-014 -2.14687e-014
lhumerus -23.6765 -16.3557 88.9424
lradius 34.0006
lwrist -7.12322
lhand -20.5683 25.0871
lfingers 7.12502
lthumb 5.7912 54.9879
rfemur -60.9138 -28.092 9.06918
rtibia 74.9494
rfoot -10.6533 15.1317
rtoes 12.2756
lfemur 17.0749 7.32321 -8.36162
ltibia 33.7135
lfoot -27.036 29.6135
ltoes -23.7417
779
root -3.58888 13.8307 11.1272 3.25746 21.9986 9.1579
lowerback 16.8506 -0.050879 -12.9748
upperback -0.836148 -2.7728 -1.01627
thorax -9.91071 -0.659573 6.91556
lowerneck -0.482338 -8.67722 -9.62466
upperneck 4.14522 -11.8254 8.99953
head 2.41754 -5.88471 3.86844
rclavicle 6.39528e-014 -1.92821e-014
rhumerus -31.1371 15.1992 -75.004
rradius 42.8785
rwrist 12.1971
rhand -4.74168 -44.0359
rfingers 7.12502
rthumb 21.0416 -72.9144
lclavicle 6.39528e-014 -1.92821e-014
lhumerus -23.6369 -16.3731 88.9595
lradius 33.9917
lwrist -7.16254
lhand -20.1936 25.1944
lfingers 7.12502
lthumb 6.15291 55.085
rfemur -60.9061 -28.1111 9.1262
rtibia 74.9541
rfoot -10.6528 15.1553
rtoes 12.3591
lfemur 17.0692 7.3686 -8.28525
ltibia 33.7751
lfoot -27.0834 29.5697
ltoes -23.7267
780
root -3.58904 13.8291 11.1285 3.23442 22.0125 9.1576
lowerback 16.9078 -0.0414086 -12.9944
upperback -0.838773 -2.77294 -1.0108
thorax -9.94546 -0.655668 6.93529
lowerneck -0.453905 -8.68187 -9.62425
upperneck 4.16987 -11.8354 8.99968
head 2.42116 -5.89023 3.86867
rclavicle 4.80189e-015 5.41688e-014
rhumerus -31.128 15.1931 -75.0491
rradius 42.8618
rwrist 12.2279
rhand -4.76344 -44.0133
rfingers 7.12502
rthumb 21.0207 -72.8941
lclavicle 4.80189e-015 5.41688e-014
lhumerus -23.6517 -16.4669 89.0178
lradius 34.0006
lwrist -6.99732
lhand -20.6845 24.7494
lfingers 7.12502
lthumb 5.679 54.6533
rfemur -60.883 -28.1545 9.11572
rtibia 74.9744
rfoot -10.597 15.2185
rtoes 12.4276
lfemur 17.0705 7.39236 -8.25668
ltibia 33.8292
lfoot -27.0737 29.5794
ltoes -23.6295
781
root -3.58991 13.829 11.1292 3.2655 22.0052 9.15153
lowerback 16.9124 -0.0367961 -13.0296
upperback -0.843444 -2.77326 -0.991613
thorax -9.95114 -0.652747 6.97693
lowerneck -0.520414 -8.70445 -9.5994
upperneck 4.24002 -11.8611 8.9353
head 2.44987 -5.90188 3.83961
rclavicle -3.85891e-014 -9.93923e-016
rhumerus -31.0906 15.248 -75.0854
rradius 42.8625
rwrist 12.1864
rhand -4.69044 -44.1242
rfingers 7.12502
rthumb 21.0908 -72.9972
lclavicle -3.85891e-014 -9.93923e-016
lhumerus -23.6245 -16.4949 89.0602
lradius 33.9986
lwrist -6.98357
lhand -20.909 24.5937
lfingers 7.12502
lthumb 5.46222 54.5033
rfemur -60.9445 -28.1691 9.16122
rtibia 74.9858
rfoot -10.6081 15.2268
rtoes 12.4306
lfemur 16.9996 7.42428 -8.2429
ltibia 33.8921
lfoot -27.0656 29.5842
ltoes -23.6331
782
root -3.58978 13.8277 11.1301 3.30826 22.0224 9.19721
lowerback 16.9209 -0.0398214 -13.1023
upperback -0.828357 -2.79096 -0.983841
thorax -9.93193 -0.659011 7.03073
lowerneck -0.622552 -8.70913 -9.59749
upperneck 4.28527 -11.8606 8.91728
head 2.4787 -5.89924 3.82809
rclavicle -6.34154e-014 2.93207e-015
rhumerus -31.0224 15.2852 -75.1025
rradius 42.8742
rwrist 12.1964
rhand -4.65364 -44.1879
rfingers 7.12502
rthumb 21.1262 -73.057
lclavicle -6.34154e-014 2.93207e-015
lhumerus -23.5653 -16.5559 89.0956
lradius 34.0121
lwrist -6.93156
lhand -20.4436 24.8326
lfingers 7.12502
lthumb 5.91155 54.7301
rfemur -60.9925 -28.2278 9.13162
rtibia 75.0164
rfoot -10.5866 15.2648
rtoes 12.3518
lfemur 16.9323 7.44535 -8.27932
ltibia 33.9497
lfoot -26.9972 29.63
ltoes -23.6912
783
root -3.59053 13.8252 11.1302 3.35993 22.016 9.23353
lowerback 16.9144 -0.0235886 -13.1614
upperback -0.820183 -2.77924 -0.9809
thorax -9.9192 -0.651488 7.06404
lowerneck -0.729765 -8.73557 -9.57842
upperneck 4.34651 -11.8891 8.87977
head 2.51362 -5.91093 3.80592
rclavicle -2.62706e-014 4.96962e-016
rhumerus -30.9504 15.2895 -75.1146
rradius 42.8329
rwrist 12.2184
rhand -4.75885 -44.1327
rfingers 7.12502
rthumb 21.0251 -73.013
lclavicle -2.62706e-014 4.96962e-016
lhumerus -23.5055 -16.6588 89.1446
lradius 34.0167
lwrist -6.88034
lhand -20.5977 25.0204
lfingers 7.12502
lthumb 5.7628 54.922
rfemur -61.0739 -28.2458 9.13138
rtibia 75.0408
rfoot -10.5717 15.2745
rtoes 12.3619
lfemur 16.8558 7.45347 -8.31881
ltibia 34.0187
lfoot -27.0727 29.6029
ltoes -23.5966
784
root -3.59108 13.8228 11.1316 3.41626 22.0188 9.26958
lowerback 16.8937 -0.0207747 -13.2342
upperback -0.818109 -2.78601 -0.974543
thorax -9.90058 -0.652115 7.11272
lowerneck -0.693233 -8.71535 -9.61124
upperneck 4.28723 -11.8647 8.94772
head 2.49384 -5.89914 3.83551
rclavicle -8.88319e-015 2.38542e-015
rhumerus -30.8766 15.2936 -75.1368
rradius 42.812
rwrist 12.1966
rhand -4.75817 -44.1921
rfingers 7.12502
rthumb 21.0257 -73.0723
lclavicle -8.88319e-015 2.38542e-015
lhumerus -23.4542 -16.7315 89.1754
lradius 34.0186
lwrist -6.92054
lhand -20.5137 25.0097
lfingers 7.12502
lthumb 5.84384 54.9091
rfemur -61.1511 -28.2673 9.12375
rtibia 75.075
rfoot -10.5347 15.2784
rtoes 12.3843
lfemur 16.7836 7.45904 -8.35611
ltibia 34.0855
lfoot -27.1315 29.5837
ltoes -23.5523
785
root -3.59113 13.8223 11.1309 3.45568 22.0144 9.2559
lowerback 16.8902 -0.0192899 -13.2473
upperback -0.813723 -2.78392 -0.956226
thorax -9.89257 -0.650673 7.13994
lowerneck -0.711881 -8.71903 -9.62797
upperneck 4.27274 -11.8679 8.96479
head 2.4949 -5.90023 3.84233
rclavicle -8.46388e-014 -2.56929e-014
rhumerus -30.8205 15.3039 -75.1452
rradius 42.8324
rwrist 12.2429
rhand -4.40041 -44.3271
rfingers 7.12502
rthumb 21.3694 -73.1688
lclavicle -8.46388e-014 -2.56929e-014
lhumerus -23.392 -16.8708 89.2185
lradius 34.0175
lwrist -6.85915
lhand -20.495 25.0905
lfingers 7.12502
lthumb 5.86191 54.9894
rfemur -61.2237 -28.2622 9.16891
rtibia 75.0935
rfoot -10.535 15.2548
rtoes 12.381
lfemur 16.7006 7.48255 -8.34532
ltibia 34.1488
lfoot -27.1064 29.6222
ltoes -23.5758
